<?xml version="1.0" encoding="UTF-8"?>
<svg id="Layer_1" xmlns="http://www.w3.org/2000/svg" version="1.1" viewBox="0 0 595.28 412.67">
  <!-- Generator: Adobe Illustrator 29.8.2, SVG Export Plug-In . SVG Version: 2.1.1 Build 3)  -->
  <path d="M374.02,146.05c11.64,21.42,29.46,39.05,55.38,40.71.64.04,2.81.41,2.7-.61l-13.24-4.31-8.17-4.02c15.95,2.19,31.35-3.8,46.89-6.37,28.35-4.68,69-3.54,92.03,15.9,3.93,3.32,4.7,6.08,7.42,9.25,4.45,5.18,14.05,10.04,18.75,15.77,6.88,8.41,9.37,24.76.63,32.69-2.01-5.61-8.72-7.8-14.29-8.31-42.22-3.87-81.69,40.67-115.92,60.2s-80.44,23.07-120.16,20.28c-18.22,14.13-36.09,28.96-56.57,39.83-2.69,1.43-8.17,4.58-10.83,5.24-.33.08-.97.17-.88-.28l45.22-46.12c-3.75-.12-6.22,1.61-8.93,3.85-17.48,14.48-41.22,48.8-64.56,50.88-14.45,1.29-36.8-2.51-30.63-22.01,1.91-.45.94,1.62,1.46,2.99,1.89,5.01,9.26,7.86,14,9.5l-3.07-4.36c-2.62-5.24-2.69-13.51,1.88-17.66-1.08,13.45,14.17,18.69,24.1,11.31.72-.53,6.32-5.95,5.65-6.54-5.66-.84-10.04,1.3-13.67,5.35-6.61-11.08-.54-19.65,11.6-20.82,2.49-.24,5.11.18,7.65-.08,7.16-.74,12.06-4.72,15.24-10.94-12.01-1.72-24.36-1.97-36.3-4.75-1.1-.26-3.62-.49-4.15-1.49,15.22-2.32,29.66-7.6,44.34-11.94,44.61,8.34,95.9,14.17,140.37,2.36,38.91-10.33,68.37-39.18,100.3-61.85l-11.28-2.09c-12.38-4.99-18.7-7.49-23.68-20.36-.84-2.18-.98-6.4-4.91-4.03-3.15,1.91-2.14,11.34-1.39,14.49,1.62,6.8,5.22,11.14,10.91,14.97-14.15,1.06-23.43-5.37-24.39-19.94-.47-7.14,2.46-12.96,2.97-19.93-6.5-1.27-11.02,3.62-16.26,6.06-9.13,4.24-30.41,2.07-41.75,2.88-47.42,3.39-97.88,23.95-139.35,46.31-42.97,23.17-86.14,50.52-137.65,39.09l-11.89-3.87,66.66-13.38,28.54-7.45c-26.69,3.26-53.08,8.72-79.61,12.91-7.32,1.16-19.74,3.81-26.6,3.79-3.7,0-8.34-3.44-12.19-3.92l-16.07-8.02c36.45-3.44,72.84-7.59,109.09-12.6l19.43-3.47c-10.79.66-21.64.99-32.42,1.78-35.13,2.6-70.2,6.85-105.33,9.57-10.96-3.43-20.42-11.07-31.23-14.94l189.81-7.74-116.62-7.13c4.06-.15,8.16.17,12.22.02,29.38-1.09,58.67-2.76,88.02-3.62,14.67-.43,30.07.31,44.68-.55,8.29-.49,16.41-2.89,24.67-3.6-.32-1.33-.96-.89-1.79-.92-19.09-.64-32.7.16-50.98-7.9l-21.02-12,37.18-1.8,46.72-5.05-62.81-1.46c-7.67-.97-15.4-1.09-22.99-2.59-14.52-2.87-29.37-10.91-40.35-20.64l107.7-7.14c-5.44-.19-10.94.22-16.38.02-25.63-.95-51.72-2.46-77.32-4.2-24.22-1.64-49.69-11.71-64.87-31.53-.46-.6-1.15-.75-.89-1.79l145.78,8.33c-16.11-1.53-31.97-4.81-47.98-7.06-28.41-4-57.26-6.49-85.5-11.49-21.91-3.88-36.39-12.35-50.03-29.71-2.71-3.45-4.52-7.75-8.08-10.37l192.78,28.87c-51.11-12.04-102.94-21-154.22-32.33-24.81-5.48-42.73-7.09-56.13-31.34-3.02-5.47-5.39-11.38-7.42-17.27l295.44,63.07c26.88,8.61,32.46,25.16,44.55,47.4ZM546.35,201.62c-8.86-2.12-16.99-6.6-25.71-9.1-10.07-2.89-19.26-2.59-29.62-1.61l23.21,3.86c9.1,1.09,18.39,6.05,27.23,7.28,1.07.15,4.37.78,4.89-.42ZM514.22,198.64l-7.37-.46c-9.45,7.34-1.59,21.87,8.85,23.07,11.46,1.32,20.37-5.46,19.94-17.26l-2.95.03c-1.63,20.48-30.66,12.47-18.47-5.38ZM573.38,219.83c-4.56-8.87-11.64-13.24-19.7-18.7-.72-.49-3.85-2.86-4.35-2.49-.2,2.22-2.22,3.16-2.73,5.31-.9,3.8-.11,5.39-1.91,9.39-4.13,9.17-12.05,11.91-19.17,18.02,5.5-.9,10.89-2.83,16.44-3.49,2.84-.34,7.72-.66,10.61-.7,7.6-.11,14.57.78,21.41,4.17,2.56-2.39.85-8.7-.6-11.52ZM524.61,201.25c-2.8.43-1.21,5.22,1.73,5.04l2.08-3.11c-.2-1.09-2.87-2.08-3.81-1.93Z"/>
  <g>
    <path d="M213.13,327.19c.11.89-1.6.88-2.26,1.01-43.62,8.22-90.08,4.27-134.28,3.13-5.45-.14-11.37.43-16.72.06-1.02-.07-1.97.06-2.64-.93l37.76-2.1,118.14-1.16Z"/>
    <g>
      <path d="M559.88,212.45c7.7-1.54-2.06,9.08-5.5,8.77s1.45-7.96,5.5-8.77Z"/>
      <g>
        <path d="M251.81,282.56c-9.15,8.05-20.67,12.84-31.98,17.1-13.66,5.14-29.65,10.07-44.05,12.48-35.02,5.86-71.97,1.03-107.23-.43l9.2-1.21c43.8.16,85.46-1.46,127.79-13.24,15.54-4.32,31.14-9.24,46.28-14.7Z"/>
        <path d="M291.08,259.35c-1.96,4.5.64,8.75,2.97,12.48-13.33,4.14-17.1-11.96-2.97-12.48Z"/>
        <path d="M366.06,230.78c-2.33,4.73-1.41,10.2,1.79,14.27-13.44,1.54-15.69-13.76-1.79-14.27Z"/>
        <path d="M314.88,249.23c-1.45,3.17-1.21,7.95.67,10.93.94,1.49,2.52,1.07,2.3,2.75-3.68.15-8.38.05-10.71-3.27-3.77-5.38,1.96-11.45,7.73-10.41Z"/>
        <path d="M424.96,238.51c-11.82,3.09-15.7-12.49-2.98-14.28-1.39,5.33.33,9.72,2.98,14.28Z"/>
        <path d="M339.87,239.11c-2.37,4.48-2.24,9.99.59,14.27-13.28,1.33-13.6-14.34-.59-14.27Z"/>
        <path d="M393.43,224.83c-2.47,5.05-.7,9.47,1.19,14.27-12.48,1.24-14.1-14.19-1.19-14.27Z"/>
        <path d="M438.65,251.61c-2.73,3.81-.97,9.27,2.37,12.19.04,1.94-11.1,1.09-11.87-4.21-.78-5.41,4.9-7.89,9.5-7.98Z"/>
        <path d="M408.3,250.42c.11,1.98-.3,4.02.27,5.98.39,1.33,5.04,6.04,4.49,6.52-11.74,2.18-19.24-9.74-4.76-12.49Z"/>
        <path d="M355.94,259.94c-1.56,4.91.23,9.35,2.38,13.68-12.57,1.91-14.56-11.77-2.38-13.68Z"/>
        <path d="M330.35,271.84c-1.17,3.83.23,9.11,3.28,11.9,1.05,2.46-7.92.73-9.84-1.48-3.79-4.35.91-11.69,6.56-10.42Z"/>
        <path d="M383.31,253.99c-2.69,4.38-.89,8.66,1.79,12.49-4.96,1.5-10.73-1.03-11.36-6.24,2.29-4.11,4.75-5.82,9.57-6.24Z"/>
        <path d="M274.42,285.52c-11.09,1.96-17.76-8.09-4.76-11.9-.07,1.45-.07,2.75.3,4.17.82,3.18,3.24,4.95,4.47,7.73Z"/>
        <path d="M304.77,280.18c-2.08,4.38,1.46,8.22,4.16,11.29-11.63,3.02-17.66-9.53-4.16-11.29Z"/>
        <path d="M405.92,277.8c.26.98-1.02.27-1.2.97-.87,3.52,1.37,6.33,2.98,9.13-12.58,3.8-15-10.54-1.79-10.1Z"/>
        <path d="M379.74,281.96c-1.98,4.21.93,7.68,3.57,10.7-11.87,3-17.17-8.63-3.57-10.7Z"/>
        <path d="M355.34,286.72c-2.07,4.11,1.26,7.61,3.57,10.7-3.31.02-7.04.5-9.73-1.86-4.63-4.06,1.47-9.66,6.16-8.84Z"/>
        <path d="M428.53,276.61c-1.79,3.49.4,6.42,2.37,9.22-10.29,4.76-13.97-9.44-2.37-9.22Z"/>
      </g>
    </g>
  </g>
</svg>