0
SECTION
2
HEADER
9
$INSUNITS
70
4
9
$ACADVER
1
AC1014
9
$HANDSEED
5
FFFF
0
ENDSEC
0
SECTION
2
TABLES
0
TABLE
2
VPORT
5
8
100
AcDbSymbolTable
0
ENDTAB
0
TABLE
2
LTYPE
5
5
100
AcDbSymbolTable
0
LTYPE
5
14
100
AcDbSymbolTableRecord
100
AcDbLinetypeTableRecord
2
BYBLOCK
70
0
0
LTYPE
5
15
100
AcDbSymbolTableRecord
100
AcDbLinetypeTableRecord
2
BYLAYER
70
0
0
LTYPE
5
16
100
AcDbSymbolTableRecord
100
AcDbLinetypeTableRecord
2
DASHED
70
0
3
Dashed __ __ __ __ __ __ __ __ __ __ __ __ __ _
72
65
73
2
40
0.75
49
0.5
74
0
49
-0.25
74
0
0
ENDTAB
0
TABLE
2
LAYER
5
2
100
AcDbSymbolTable
70
2
0
LAYER
5
50
100
AcDbSymbolTableRecord
100
AcDbLayerTableRecord
2
0
70
0
62
7
6
CONTINUOUS
0
ENDTAB
0
TABLE
2
STYLE
5
3
100
AcDbSymbolTable
70
1
0
STYLE
5
11
100
AcDbSymbolTableRecord
100
AcDbTextStyleTableRecord
2
STANDARD
70
0
0
ENDTAB
0
TABLE
2
VIEW
5
6
100
AcDbSymbolTable
70
0
0
ENDTAB
0
TABLE
2
UCS
5
7
100
AcDbSymbolTable
70
0
0
ENDTAB
0
TABLE
2
APPID
5
9
100
AcDbSymbolTable
70
2
0
APPID
5
12
100
AcDbSymbolTableRecord
100
AcDbRegAppTableRecord
2
ACAD
70
0
0
ENDTAB
0
TABLE
2
DIMSTYLE
5
A
100
AcDbSymbolTable
70
1
0
ENDTAB
0
TABLE
2
BLOCK_RECORD
5
1
100
AcDbSymbolTable
70
1
0
BLOCK_RECORD
5
1F
100
AcDbSymbolTableRecord
100
AcDbBlockTableRecord
2
*MODEL_SPACE
0
BLOCK_RECORD
5
1B
100
AcDbSymbolTableRecord
100
AcDbBlockTableRecord
2
*PAPER_SPACE
0
ENDTAB
0
ENDSEC
0
SECTION
2
BLOCKS
0
BLOCK
5
20
100
AcDbEntity
100
AcDbBlockBegin
2
*MODEL_SPACE
0
ENDBLK
5
21
100
AcDbEntity
100
AcDbBlockEnd
0
BLOCK
5
1C
100
AcDbEntity
100
AcDbBlockBegin
2
*PAPER_SPACE
0
ENDBLK
5
1D
100
AcDbEntity
100
AcDbBlockEnd
0
ENDSEC
0
SECTION
2
ENTITIES
0
POINT
5
100
100
AcDbEntity
8
0
100
AcDbPoint
10
0
20
0
30
0
0
LWPOLYLINE
5
101
100
AcDbEntity
8
0
100
AcDbPolyline
90
4
70
1
43
0.0
10
0
20
0
10
144
20
0
10
144
20
68
10
0
20
68
0
LWPOLYLINE
5
102
100
AcDbEntity
8
0
100
AcDbPolyline
90
4
70
1
43
0.0
10
5
20
63.000000000000007
10
18.799999999999997
20
63.000000000000007
10
18.799999999999997
20
49.100000000000001
10
5
20
49.100000000000001
0
LWPOLYLINE
5
103
100
AcDbEntity
8
0
100
AcDbPolyline
90
4
70
1
43
0.0
10
23.199999999999999
20
63.000000000000007
10
37
20
63.000000000000007
10
37
20
49.100000000000001
10
23.199999999999999
20
49.100000000000001
0
LWPOLYLINE
5
104
100
AcDbEntity
8
0
100
AcDbPolyline
90
4
70
1
43
0.0
10
41.399999999999999
20
63.000000000000007
10
55.199999999999996
20
63.000000000000007
10
55.199999999999996
20
49.100000000000001
10
41.399999999999999
20
49.100000000000001
0
LWPOLYLINE
5
105
100
AcDbEntity
8
0
100
AcDbPolyline
90
4
70
1
43
0.0
10
59.600000000000001
20
63.000000000000007
10
73.400000000000006
20
63.000000000000007
10
73.400000000000006
20
49.100000000000001
10
59.600000000000001
20
49.100000000000001
0
LWPOLYLINE
5
106
100
AcDbEntity
8
0
100
AcDbPolyline
90
4
70
1
43
0.0
10
77.799999999999997
20
63.000000000000007
10
91.599999999999994
20
62.999999999999986
10
91.599999999999994
20
49.09999999999998
10
77.799999999999997
20
49.100000000000001
0
LWPOLYLINE
5
107
100
AcDbEntity
8
0
100
AcDbPolyline
90
4
70
1
43
0.0
10
96
20
63.000000000000007
10
109.80000000000001
20
63.000000000000007
10
109.80000000000001
20
49.100000000000001
10
96
20
49.100000000000001
0
LWPOLYLINE
5
108
100
AcDbEntity
8
0
100
AcDbPolyline
90
4
70
1
43
0.0
10
4.9999999999999991
20
44.900000000000006
10
18.800000000000001
20
44.900000000000006
10
18.800000000000001
20
31.000000000000007
10
4.9999999999999991
20
31.000000000000007
0
LWPOLYLINE
5
109
100
AcDbEntity
8
0
100
AcDbPolyline
90
4
70
1
43
0.0
10
23.200000000000003
20
44.900000000000006
10
37.000000000000007
20
44.900000000000006
10
37.000000000000007
20
31.000000000000007
10
23.200000000000003
20
31.000000000000007
0
LWPOLYLINE
5
110
100
AcDbEntity
8
0
100
AcDbPolyline
90
4
70
1
43
0.0
10
41.400000000000006
20
44.900000000000006
10
55.200000000000003
20
44.900000000000006
10
55.200000000000003
20
31.000000000000014
10
41.400000000000006
20
31.000000000000011
0
LWPOLYLINE
5
111
100
AcDbEntity
8
0
100
AcDbPolyline
90
4
70
1
43
0.0
10
59.600000000000001
20
44.900000000000006
10
73.400000000000006
20
44.900000000000006
10
73.400000000000006
20
31.000000000000014
10
59.600000000000001
20
31.000000000000011
0
LWPOLYLINE
5
112
100
AcDbEntity
8
0
100
AcDbPolyline
90
4
70
1
43
0.0
10
77.799999999999997
20
44.899999999999984
10
91.599999999999994
20
44.899999999999984
10
91.599999999999994
20
30.999999999999975
10
77.799999999999997
20
30.999999999999975
0
LWPOLYLINE
5
113
100
AcDbEntity
8
0
100
AcDbPolyline
90
4
70
1
43
0.0
10
96
20
44.900000000000006
10
109.80000000000001
20
44.90000000000002
10
109.80000000000001
20
30.999999999999996
10
96
20
30.999999999999996
0
LWPOLYLINE
5
114
100
AcDbEntity
8
0
100
AcDbPolyline
90
4
70
1
43
0.0
10
59.600000000000009
20
17.000000000000014
10
73.400000000000006
20
17.000000000000014
10
73.400000000000006
20
3.1000000000000116
10
59.600000000000009
20
3.1000000000000116
0
LWPOLYLINE
5
115
100
AcDbEntity
8
0
100
AcDbPolyline
90
4
70
1
43
0.0
10
77.799999999999997
20
16.999999999999972
10
91.599999999999994
20
16.999999999999972
10
91.599999999999994
20
3.0999999999999712
10
77.800000000000011
20
3.0999999999999717
0
LWPOLYLINE
5
116
100
AcDbEntity
8
0
100
AcDbPolyline
90
4
70
1
43
0.0
10
96
20
16.999999999999996
10
109.80000000000001
20
16.999999999999996
10
109.80000000000001
20
3.0999999999999943
10
96
20
3.0999999999999943
0
LWPOLYLINE
5
117
100
AcDbEntity
8
0
100
AcDbPolyline
90
4
70
1
43
0.0
10
118.00000175833702
20
63.000000000000007
10
120.50000175833702
20
63.000000000000007
10
120.50000175833702
20
26.000000000000007
10
118.00000175833702
20
26.000000000000007
0
LWPOLYLINE
5
118
100
AcDbEntity
8
0
100
AcDbPolyline
90
4
70
1
43
0.0
10
133.70000175833701
20
63.000000000000007
10
136.20000175833701
20
63.000000000000007
10
136.20000175833701
20
26.000000000000007
10
133.70000175833701
20
26.000000000000007
0
LWPOLYLINE
5
119
100
AcDbEntity
8
0
100
AcDbPolyline
90
4
70
1
43
0.0
10
129.00000187754631
20
17.00000025331974
10
141.00000187754631
20
17.00000025331974
10
141.00000187754631
20
11.00000025331974
10
129.00000187754631
20
11.00000025331974
0
LWPOLYLINE
5
120
100
AcDbEntity
8
0
100
AcDbPolyline
90
4
70
1
43
0.0
10
125.00000186264515
20
10.000000149011612
10
141.00000210106373
20
10.000000149011612
10
141.00000210106373
20
8.0000001192092896
10
125.00000186264515
20
8.0000001192092896
0
ENDSEC
0
SECTION
2
OBJECTS
0
DICTIONARY
5
C
100
AcDbDictionary
3
ACAD_GROUP
350
D
3
ACAD_MLINESTYLE
350
17
0
DICTIONARY
5
D
100
AcDbDictionary
0
DICTIONARY
5
1A
330
C
100
AcDbDictionary
0
DICTIONARY
5
17
100
AcDbDictionary
0
ENDSEC
0
EOF
